<svg xmlns="http://www.w3.org/2000/svg" viewBox="0 0 342 96" width="342" height="96" role="img" aria-label="difflow_cc -- Carbon Capture"><defs><linearGradient id="bg-cc" x1="0" y1="0" x2="64" y2="64" gradientUnits="userSpaceOnUse"><stop offset="0" stop-color="#0f766e"/><stop offset="0.55" stop-color="#14b8a6"/><stop offset="1" stop-color="#5eead4"/></linearGradient><linearGradient id="ink" x1="96" y1="0" x2="300" y2="0" gradientUnits="userSpaceOnUse"><stop offset="0" stop-color="#4f46e5"/><stop offset="1" stop-color="#0ea5e9"/></linearGradient></defs><g transform="translate(16,16)"><rect x="0" y="0" width="64" height="64" rx="15" fill="url(#bg-cc)"/><g fill="none" stroke="#ffffff" stroke-width="3" stroke-linecap="round" stroke-linejoin="round"><line x1="22" y1="16" x2="27" y2="16"/><line x1="22" y1="22" x2="27" y2="22"/><line x1="37" y1="16" x2="42" y2="16"/><line x1="37" y1="22" x2="42" y2="22"/><path d="M32 30 V38"/><path d="M28.5 34.5 L32 38.5 L35.5 34.5"/><path d="M14 38 V48 a6 6 0 0 0 6 6 H44 a6 6 0 0 0 6 -6 V38"/></g><path d="M14 46 H50 V48 a6 6 0 0 1 -6 6 H20 a6 6 0 0 1 -6 -6 Z" fill="#ffffff" fill-opacity="0.6"/><g fill="#ffffff"><circle cx="15" cy="19" r="6.5"/><circle cx="32" cy="19" r="5.5"/><circle cx="49" cy="19" r="6.5"/></g><circle cx="32" cy="19" r="2.2" fill="#0f766e"/></g><text x="98" y="52" font-family="'Helvetica Neue', Helvetica, Arial, sans-serif" font-size="40" font-weight="700" letter-spacing="-1"><tspan fill="url(#ink)">difflow</tspan><tspan fill="#0f766e" font-weight="400" dx="8">cc</tspan></text><text x="100" y="74" font-family="'Helvetica Neue', Helvetica, Arial, sans-serif" font-size="12.5" font-weight="600" letter-spacing="2.4" fill="#64748b">CARBON CAPTURE</text></svg>
