<svg xmlns="http://www.w3.org/2000/svg" viewBox="0 0 365 96" width="365" height="96" role="img" aria-label="difflow_bio -- Biomanufacturing"><defs><linearGradient id="bg-bio" x1="0" y1="0" x2="64" y2="64" gradientUnits="userSpaceOnUse"><stop offset="0" stop-color="#059669"/><stop offset="0.55" stop-color="#10b981"/><stop offset="1" stop-color="#a3e635"/></linearGradient><linearGradient id="ink" x1="96" y1="0" x2="300" y2="0" gradientUnits="userSpaceOnUse"><stop offset="0" stop-color="#4f46e5"/><stop offset="1" stop-color="#0ea5e9"/></linearGradient></defs><g transform="translate(16,16)"><rect x="0" y="0" width="64" height="64" rx="15" fill="url(#bg-bio)"/><g fill="none" stroke="#ffffff" stroke-width="3" stroke-linecap="round" stroke-linejoin="round"><polyline points="32.0,10.0 34.1,11.0 36.2,12.0 38.1,13.0 39.9,14.0 41.3,15.0 42.5,16.0 43.4,17.0 43.9,18.0 44.0,19.0 43.7,20.0 43.1,21.0 42.1,22.0 40.8,23.0 39.2,24.0 37.4,25.0 35.4,26.0 33.3,27.0 31.1,28.0 29.0,29.0 27.0,30.0 25.2,31.0 23.5,32.0 22.1,33.0 21.1,34.0 20.4,35.0 20.0,36.0 20.1,37.0 20.5,38.0 21.3,39.0 22.4,40.0 23.8,41.0 25.5,42.0 27.4,43.0 29.4,44.0 31.6,45.0 33.7,46.0 35.8,47.0 37.8,48.0 39.5,49.0 41.1,50.0"/><polyline points="32.0,10.0 29.9,11.0 27.8,12.0 25.9,13.0 24.1,14.0 22.7,15.0 21.5,16.0 20.6,17.0 20.1,18.0 20.0,19.0 20.3,20.0 20.9,21.0 21.9,22.0 23.2,23.0 24.8,24.0 26.6,25.0 28.6,26.0 30.7,27.0 32.9,28.0 35.0,29.0 37.0,30.0 38.8,31.0 40.5,32.0 41.9,33.0 42.9,34.0 43.6,35.0 44.0,36.0 43.9,37.0 43.5,38.0 42.7,39.0 41.6,40.0 40.2,41.0 38.5,42.0 36.6,43.0 34.6,44.0 32.4,45.0 30.3,46.0 28.2,47.0 26.2,48.0 24.5,49.0 22.9,50.0"/><line x1="26.6" y1="14" x2="37.4" y2="14" stroke-width="2.2" opacity="0.8"/><line x1="22.8" y1="20" x2="41.2" y2="20" stroke-width="2.2" opacity="0.8"/><line x1="38.0" y1="32" x2="26.0" y2="32" stroke-width="2.2" opacity="0.8"/><line x1="41.0" y1="38" x2="23.0" y2="38" stroke-width="2.2" opacity="0.8"/><line x1="25.4" y1="50" x2="38.6" y2="50" stroke-width="2.2" opacity="0.8"/></g></g><text x="98" y="52" font-family="'Helvetica Neue', Helvetica, Arial, sans-serif" font-size="40" font-weight="700" letter-spacing="-1"><tspan fill="url(#ink)">difflow</tspan><tspan fill="#059669" font-weight="400" dx="8">bio</tspan></text><text x="100" y="74" font-family="'Helvetica Neue', Helvetica, Arial, sans-serif" font-size="12.5" font-weight="600" letter-spacing="2.4" fill="#64748b">BIOMANUFACTURING</text></svg>
